<svg xmlns="http://www.w3.org/2000/svg" viewBox="0 0 860 220" role="img" aria-label="Armorer Gauntlet logo">
  <rect width="860" height="220" rx="28" fill="#09090b"/>
  <g transform="translate(28 26)">
    <path d="M84 0 154 32v52c0 42-25 75-70 95-45-20-70-53-70-95V32L84 0Z" fill="#052e24" stroke="#065f46" stroke-width="8" stroke-linejoin="round"/>
    <path d="M42 73c0-11 9-20 20-20h45c15 0 27 12 27 27v15c0 26-21 47-47 47H77c-20 0-35-16-35-35V73Z" fill="#064e3b" stroke="#10b981" stroke-width="8" stroke-linejoin="round"/>
    <path d="M59 53v48M77 53v48M95 53v48M113 60v41" stroke="#34d399" stroke-width="8" stroke-linecap="round"/>
    <path d="M52 132h64v27c0 9-7 16-16 16H68c-9 0-16-7-16-16v-27Z" fill="#18181b" stroke="#10b981" stroke-width="8" stroke-linejoin="round"/>
    <path d="M68 80h39" stroke="#fafafa" stroke-width="8" stroke-linecap="round"/>
  </g>
  <text x="214" y="94" fill="#fafafa" font-family="Inter, ui-sans-serif, system-ui, -apple-system, BlinkMacSystemFont, 'Segoe UI', sans-serif" font-size="54" font-weight="800">Armorer Gauntlet</text>
  <text x="218" y="137" fill="#34d399" font-family="'SFMono-Regular', 'SF Mono', Consolas, 'Liberation Mono', monospace" font-size="20" font-weight="700">Codex provider ready · more providers soon</text>
</svg>
